<svg width="51" height="58" viewBox="0 0 51 58" fill="none" xmlns="http://www.w3.org/2000/svg">
<path d="M12.8951 29.0193H16.0201V32.1443H34.7701V29.0193H37.8951V25.8943H41.0201V7.14429H37.8951V4.01929H34.7701V0.894287H16.0201V4.01929H12.8951V7.14429H9.77014V25.8943H12.8951V29.0193ZM16.0201 13.3943H19.1451V10.2693H22.2701V7.14429H28.5201V10.2693H31.6451V13.3943H34.7701V19.6443H31.6451V22.7693H28.5201V25.8943H22.2701V22.7693H19.1451V19.6443H16.0201V13.3943Z" fill="white"/>
<path d="M47.27 41.519V38.394H44.145V35.269H6.64502V38.394H3.52002V41.519H0.39502V57.144H6.64502V47.769H9.77002V44.644H12.895V41.519H37.895V44.644H41.02V47.769H44.145V57.144H50.395V41.519H47.27Z" fill="white"/>
</svg>
