<svg width="76" height="76" viewBox="0 0 76 76" fill="none" xmlns="http://www.w3.org/2000/svg">
<path d="M66.5199 44.0281V40.9031H47.7699V37.7781H44.6449V34.6531H41.5199V31.5281H38.3949V28.4031H35.2699V9.65308H32.1449V6.52808H13.3949V9.65308H10.2699V12.7781H7.1449V34.6531H10.2699V37.7781H13.3949V40.9031H16.5199V44.0281H19.6449V47.1531H22.7699V50.2781H25.8949V53.4031H29.0199V56.5281H32.1449V59.6531H35.2699V62.7781H38.3949V65.9031H41.5199V69.0281H63.3949V65.9031H66.5199V62.7781H69.6449V44.0281H66.5199ZM63.3949 56.5281H60.2699V59.6531H57.1449V62.7781H47.7699V59.6531H44.6449V56.5281H41.5199V53.4031H38.3949V50.2781H35.2699V47.1531H32.1449V44.0281H29.0199V40.9031H25.8949V37.7781H22.7699V34.6531H19.6449V31.5281H16.5199V28.4031H13.3949V19.0281H16.5199V15.9031H19.6449V12.7781H25.8949V15.9031H29.0199V22.1531H25.8949V31.5281H29.0199V34.6531H32.1449V37.7781H35.2699V40.9031H38.3949V44.0281H41.5199V47.1531H44.6449V50.2781H54.0199V47.1531H60.2699V50.2781H63.3949V56.5281Z" fill="white"/>
</svg>
