<svg width="243" height="96" viewBox="0 0 243 96" fill="none" xmlns="http://www.w3.org/2000/svg">
<rect x="65.3606" y="76.26" width="9.31037" height="9.41368" fill="#F1F1F1"/>
<rect x="74.6704" y="76.26" width="9.31037" height="9.41368" fill="#F1F1F1"/>
<rect x="83.9822" y="76.26" width="9.31037" height="9.41368" fill="#F1F1F1"/>
<rect x="93.2903" y="76.26" width="9.31037" height="9.41368" fill="#F1F1F1"/>
<rect x="102.6" y="76.26" width="9.31037" height="9.41368" fill="#F1F1F1"/>
<rect x="111.912" y="76.26" width="9.31037" height="9.41368" fill="#F1F1F1"/>
<rect x="121.222" y="76.26" width="9.31037" height="9.41368" fill="#F1F1F1"/>
<rect x="130.534" y="76.26" width="9.31037" height="9.41368" fill="#F1F1F1"/>
<rect x="139.844" y="76.26" width="9.31037" height="9.41368" fill="#F1F1F1"/>
<rect x="149.156" y="76.26" width="9.31037" height="9.41368" fill="#F1F1F1"/>
<rect x="158.461" y="76.26" width="9.31037" height="9.41368" fill="#F1F1F1"/>
<rect x="167.773" y="76.26" width="9.31037" height="9.41368" fill="#F1F1F1"/>
<rect x="177.083" y="76.26" width="9.31037" height="9.41368" fill="#F1F1F1"/>
<rect x="186.395" y="76.26" width="9.31037" height="9.41368" fill="#F1F1F1"/>
<rect x="205.017" y="76.26" width="9.31037" height="9.41368" fill="#F1F1F1"/>
<rect x="195.705" y="76.26" width="9.31037" height="9.41368" fill="#F1F1F1"/>
<rect x="214.325" y="76.26" width="9.31037" height="9.41368" fill="#F1F1F1"/>
<rect x="223.635" y="66.8457" width="9.31037" height="9.41368" fill="#F1F1F1"/>
<rect x="232.947" y="57.4316" width="9.31037" height="9.41368" fill="#F1F1F1"/>
<rect x="232.947" y="48.0173" width="9.31037" height="9.41368" fill="#F1F1F1"/>
<rect x="232.947" y="38.603" width="9.31037" height="9.41368" fill="#F1F1F1"/>
<rect x="232.947" y="29.1931" width="9.31037" height="9.41368" fill="#F1F1F1"/>
<rect x="232.947" y="19.7788" width="9.31037" height="9.41368" fill="#F1F1F1"/>
<rect x="223.635" y="10.3647" width="9.31037" height="9.41368" fill="#F1F1F1"/>
<rect x="9.49707" y="19.7788" width="9.31037" height="9.41368" fill="#F1F1F1"/>
<path d="M9.49707 29.1931H18.8074V38.6068H9.49707V29.1931Z" fill="#F1F1F1"/>
<path d="M9.49707 38.6068H18.8074V48.0205H9.49707V38.6068Z" fill="#F1F1F1"/>
<path d="M9.49707 48.0205H18.8074V57.4341H9.49707V48.0205Z" fill="#F1F1F1"/>
<path d="M9.49707 57.4341H18.8074V66.8478H9.49707V57.4341Z" fill="#F1F1F1"/>
<rect x="18.8091" y="10.3647" width="9.31037" height="9.41368" fill="#F1F1F1"/>
<path d="M28.1189 0.950439H37.4293V10.3641H28.1189V0.950439Z" fill="#F1F1F1"/>
<rect x="37.427" y="0.950439" width="9.31037" height="9.41368" fill="#F1F1F1"/>
<rect x="37.427" y="76.26" width="9.31037" height="9.41368" fill="#F1F1F1"/>
<rect x="46.7388" y="76.26" width="9.31037" height="9.41368" fill="#F1F1F1"/>
<rect x="28.1189" y="76.26" width="9.31037" height="9.41368" fill="#F1F1F1"/>
<rect x="18.8091" y="66.8457" width="9.31037" height="9.41368" fill="#F1F1F1"/>
<rect x="56.0483" y="76.26" width="9.31037" height="9.41368" fill="#F1F1F1"/>
<rect x="65.3606" y="0.950439" width="9.31037" height="9.41368" fill="#F1F1F1"/>
<rect x="74.6704" y="0.950439" width="9.31037" height="9.41368" fill="#F1F1F1"/>
<rect x="83.9822" y="0.950439" width="9.31037" height="9.41368" fill="#F1F1F1"/>
<rect x="93.2903" y="0.950439" width="9.31037" height="9.41368" fill="#F1F1F1"/>
<rect x="102.6" y="0.950439" width="9.31037" height="9.41368" fill="#F1F1F1"/>
<rect x="111.912" y="0.950439" width="9.31037" height="9.41368" fill="#F1F1F1"/>
<rect x="121.222" y="0.950439" width="9.31037" height="9.41368" fill="#F1F1F1"/>
<rect x="130.534" y="0.950439" width="9.31037" height="9.41368" fill="#F1F1F1"/>
<rect x="139.844" y="0.950439" width="9.31037" height="9.41368" fill="#F1F1F1"/>
<rect x="149.156" y="0.950439" width="9.31037" height="9.41368" fill="#F1F1F1"/>
<rect x="158.461" y="0.950439" width="9.31037" height="9.41368" fill="#F1F1F1"/>
<rect x="167.773" y="0.950439" width="9.31037" height="9.41368" fill="#F1F1F1"/>
<rect x="177.083" y="0.950439" width="9.31037" height="9.41368" fill="#F1F1F1"/>
<rect x="186.395" y="0.950439" width="9.31037" height="9.41368" fill="#F1F1F1"/>
<rect x="195.705" y="0.950439" width="9.31037" height="9.41368" fill="#F1F1F1"/>
<rect x="205.017" y="0.950439" width="9.31037" height="9.41368" fill="#F1F1F1"/>
<rect x="214.325" y="0.950439" width="9.31037" height="9.41368" fill="#F1F1F1"/>
<rect x="56.0483" y="0.950439" width="9.31037" height="9.41368" fill="#F1F1F1"/>
<rect x="46.7388" y="0.950439" width="9.31037" height="9.41368" fill="#F1F1F1"/>
<rect x="130.534" y="19.7788" width="9.31037" height="9.41368" fill="#FFDBF7"/>
<path d="M167.773 29.1931H177.084V38.6068H167.773V29.1931Z" fill="#FFDBF7"/>
<rect x="46.7388" y="29.1931" width="9.31037" height="9.41368" fill="white"/>
<rect x="56.0483" y="29.1931" width="9.31037" height="9.41368" fill="white"/>
<rect x="34.9067" y="19.7747" width="179.418" height="48.7626" fill="white"/>
<rect x="121.222" y="29.1931" width="9.31037" height="9.41368" fill="white"/>
<rect x="121.222" y="38.603" width="9.31037" height="9.41368" fill="white"/>
<rect x="121.222" y="57.4316" width="9.31037" height="9.41368" fill="white"/>
<rect x="28.1189" y="10.3647" width="9.31037" height="9.41368" fill="white"/>
<rect x="28.1189" y="66.8457" width="9.31037" height="9.41368" fill="white"/>
<rect x="28.1189" y="57.4316" width="9.31037" height="9.41368" fill="white"/>
<rect x="28.1189" y="48.0173" width="9.31037" height="9.41368" fill="white"/>
<rect x="37.427" y="48.0173" width="9.31037" height="9.41368" fill="white"/>
<rect x="28.1189" y="38.603" width="9.31037" height="9.41368" fill="white"/>
<rect x="28.1189" y="29.1931" width="9.31037" height="9.41368" fill="white"/>
<rect x="28.1189" y="19.7788" width="9.31037" height="9.41368" fill="white"/>
<rect x="18.8091" y="57.4316" width="9.31037" height="9.41368" fill="white"/>
<rect x="18.8091" y="48.0173" width="9.31037" height="9.41368" fill="white"/>
<rect x="18.8091" y="38.603" width="9.31037" height="9.41368" fill="white"/>
<rect x="18.8091" y="29.1931" width="9.31037" height="9.41368" fill="white"/>
<rect x="18.8091" y="19.7788" width="9.31037" height="9.41368" fill="white"/>
<rect x="214.325" y="57.4316" width="9.31037" height="9.41368" fill="white"/>
<rect x="214.325" y="48.0173" width="9.31037" height="9.41368" fill="white"/>
<rect x="214.325" y="38.603" width="9.31037" height="9.41368" fill="white"/>
<rect x="214.325" y="29.1931" width="9.31037" height="9.41368" fill="white"/>
<rect x="205.017" y="57.4316" width="9.31037" height="9.41368" fill="white"/>
<rect x="195.705" y="66.8457" width="9.31037" height="9.41368" fill="white"/>
<rect x="205.017" y="48.0173" width="9.31037" height="9.41368" fill="white"/>
<rect x="205.017" y="38.603" width="9.31037" height="9.41368" fill="white"/>
<rect x="205.017" y="29.1931" width="9.31037" height="9.41368" fill="white"/>
<rect x="186.395" y="57.4316" width="9.31037" height="9.41368" fill="white"/>
<rect x="186.395" y="48.0173" width="9.31037" height="9.41368" fill="white"/>
<rect x="186.395" y="38.603" width="9.31037" height="9.41368" fill="white"/>
<rect x="186.395" y="29.1931" width="9.31037" height="9.41368" fill="white"/>
<rect x="93.2903" y="57.4316" width="9.31037" height="9.41368" fill="white"/>
<rect x="93.2903" y="48.0173" width="9.31037" height="9.41368" fill="white"/>
<rect x="93.2903" y="38.603" width="9.31037" height="9.41368" fill="white"/>
<rect x="93.2903" y="29.1931" width="9.31037" height="9.41368" fill="white"/>
<rect x="74.6704" y="57.4316" width="9.31037" height="9.41368" fill="white"/>
<rect x="74.6704" y="48.0173" width="9.31037" height="9.41368" fill="white"/>
<rect x="74.6704" y="38.603" width="9.31037" height="9.41368" fill="white"/>
<rect x="74.6704" y="29.1931" width="9.31037" height="9.41368" fill="white"/>
<rect x="214.325" y="19.7788" width="9.31037" height="9.41368" fill="white"/>
<rect x="65.3606" y="57.4316" width="9.31037" height="9.41368" fill="white"/>
<rect x="65.3606" y="48.0173" width="9.31037" height="9.41368" fill="white"/>
<rect x="65.3606" y="38.603" width="9.31037" height="9.41368" fill="white"/>
<rect x="65.3606" y="29.1931" width="9.31037" height="9.41368" fill="white"/>
<rect x="56.0483" y="19.7747" width="9.31037" height="9.41368" fill="white"/>
<rect x="46.7388" y="19.7747" width="9.31037" height="9.41368" fill="white"/>
<rect x="37.427" y="19.7747" width="9.31037" height="9.41368" fill="white"/>
<rect x="37.427" y="29.189" width="9.31037" height="9.41368" fill="white"/>
<rect x="65.3606" y="19.7788" width="9.31037" height="9.41368" fill="white"/>
<rect x="102.6" y="57.4316" width="9.31037" height="9.41368" fill="white"/>
<rect x="102.6" y="48.0173" width="9.31037" height="9.41368" fill="white"/>
<rect x="102.6" y="38.603" width="9.31037" height="9.41368" fill="white"/>
<rect x="102.6" y="29.1931" width="9.31037" height="9.41368" fill="white"/>
<rect x="102.6" y="19.7788" width="9.31037" height="9.41368" fill="white"/>
<rect x="139.844" y="57.4316" width="9.31037" height="9.41368" fill="white"/>
<rect x="139.844" y="48.0173" width="9.31037" height="9.41368" fill="white"/>
<rect x="139.844" y="38.603" width="9.31037" height="9.41368" fill="white"/>
<rect x="139.844" y="29.1931" width="9.31037" height="9.41368" fill="white"/>
<rect x="139.844" y="19.7788" width="9.31037" height="9.41368" fill="white"/>
<rect x="158.461" y="29.1931" width="9.31037" height="9.41368" fill="white"/>
<rect x="158.461" y="38.603" width="9.31037" height="9.41368" fill="white"/>
<rect x="158.461" y="57.4316" width="9.31037" height="9.41368" fill="white"/>
<rect x="177.083" y="57.4316" width="9.31037" height="9.41368" fill="white"/>
<rect x="167.773" y="48.0173" width="9.31037" height="9.41368" fill="white"/>
<rect x="177.083" y="38.603" width="9.31037" height="9.41368" fill="white"/>
<rect x="177.083" y="48.0173" width="9.31037" height="9.41368" fill="white"/>
<rect x="177.083" y="29.1931" width="9.31037" height="9.41368" fill="white"/>
<rect x="177.083" y="19.7788" width="9.31037" height="9.41368" fill="white"/>
<rect x="223.635" y="57.4316" width="9.31037" height="9.41368" fill="white"/>
<rect x="223.635" y="48.0173" width="9.31037" height="9.41368" fill="white"/>
<rect x="223.635" y="38.603" width="9.31037" height="9.41368" fill="white"/>
<rect x="223.635" y="29.1931" width="9.31037" height="9.41368" fill="white"/>
<rect x="223.635" y="19.7788" width="9.31037" height="9.41368" fill="white"/>
<rect x="46.7388" y="48.0173" width="9.31037" height="9.41368" fill="white"/>
<rect x="37.427" y="10.3647" width="9.31037" height="9.41368" fill="white"/>
<rect x="46.7388" y="10.3647" width="9.31037" height="9.41368" fill="white"/>
<rect x="56.0483" y="10.3647" width="9.31037" height="9.41368" fill="white"/>
<rect x="65.3606" y="10.3647" width="9.31037" height="9.41368" fill="white"/>
<rect x="74.6704" y="10.3647" width="9.31037" height="9.41368" fill="white"/>
<rect x="83.9822" y="10.3647" width="9.31037" height="9.41368" fill="white"/>
<rect x="93.2903" y="10.3647" width="9.31037" height="9.41368" fill="white"/>
<rect x="102.6" y="10.3647" width="9.31037" height="9.41368" fill="white"/>
<rect x="111.912" y="10.3647" width="9.31037" height="9.41368" fill="white"/>
<rect x="121.222" y="10.3647" width="9.31037" height="9.41368" fill="white"/>
<rect x="111.912" y="19.7788" width="9.31037" height="9.41368" fill="white"/>
<rect x="130.534" y="10.3647" width="9.31037" height="9.41368" fill="white"/>
<rect x="130.534" y="10.3647" width="9.31037" height="9.41368" fill="white"/>
<rect x="139.844" y="10.3647" width="9.31037" height="9.41368" fill="white"/>
<rect x="149.156" y="10.3647" width="9.31037" height="9.41368" fill="white"/>
<rect x="158.461" y="10.3647" width="9.31037" height="9.41368" fill="white"/>
<rect x="167.773" y="10.3647" width="9.31037" height="9.41368" fill="white"/>
<rect x="177.083" y="10.3647" width="9.31037" height="9.41368" fill="white"/>
<rect x="186.395" y="10.3647" width="9.31037" height="9.41368" fill="white"/>
<rect x="195.705" y="10.3647" width="9.31037" height="9.41368" fill="white"/>
<rect x="205.017" y="10.3647" width="9.31037" height="9.41368" fill="white"/>
<rect x="214.325" y="10.3647" width="9.31037" height="9.41368" fill="white"/>
<rect x="37.427" y="66.8457" width="9.31037" height="9.41368" fill="white"/>
<rect x="46.7388" y="66.8457" width="9.31037" height="9.41368" fill="white"/>
<rect x="56.0483" y="66.8457" width="9.31037" height="9.41368" fill="white"/>
<rect x="65.3606" y="66.8457" width="9.31037" height="9.41368" fill="white"/>
<rect x="74.6704" y="66.8457" width="9.31037" height="9.41368" fill="white"/>
<rect x="83.9822" y="66.8457" width="9.31037" height="9.41368" fill="white"/>
<rect x="93.2903" y="66.8457" width="9.31037" height="9.41368" fill="white"/>
<rect x="102.6" y="66.8457" width="9.31037" height="9.41368" fill="white"/>
<rect x="111.912" y="66.8457" width="9.31037" height="9.41368" fill="white"/>
<rect x="121.222" y="66.8457" width="9.31037" height="9.41368" fill="white"/>
<rect x="130.534" y="66.8457" width="9.31037" height="9.41368" fill="white"/>
<rect x="130.534" y="66.8457" width="9.31037" height="9.41368" fill="white"/>
<rect x="139.844" y="66.8457" width="9.31037" height="9.41368" fill="white"/>
<rect x="149.156" y="66.8457" width="9.31037" height="9.41368" fill="white"/>
<rect x="158.461" y="66.8457" width="9.31037" height="9.41368" fill="white"/>
<rect x="167.773" y="66.8457" width="9.31037" height="9.41368" fill="white"/>
<rect x="177.083" y="66.8457" width="9.31037" height="9.41368" fill="white"/>
<rect x="186.395" y="66.8457" width="9.31037" height="9.41368" fill="white"/>
<rect x="205.017" y="66.8457" width="9.31037" height="9.41368" fill="white"/>
<rect x="214.325" y="66.8457" width="9.31037" height="9.41368" fill="white"/>
<rect x="9.49707" y="10.9927" width="9.31037" height="9.41368" fill="#F99EA0"/>
<rect x="0.187256" y="20.4045" width="9.31037" height="9.41368" fill="#F99EA0"/>
<rect x="0.187256" y="29.8191" width="9.31037" height="9.41368" fill="#F99EA0"/>
<rect x="0.187256" y="39.2334" width="9.31037" height="9.41368" fill="#F99EA0"/>
<rect x="0.187256" y="48.6475" width="9.31037" height="9.41368" fill="#F99EA0"/>
<rect x="0.187256" y="57.4316" width="9.31037" height="9.41368" fill="#F99EA0"/>
<rect x="9.49707" y="66.8457" width="9.31037" height="9.41368" fill="#F99EA0"/>
<rect x="18.8091" y="76.26" width="9.31037" height="9.41368" fill="#F99EA0"/>
<rect x="28.1189" y="85.6741" width="9.31037" height="9.41368" fill="#F99EA0"/>
<rect x="18.8091" y="85.6741" width="9.31037" height="9.41368" fill="#F99EA0"/>
<rect x="9.49707" y="76.26" width="9.31037" height="9.41368" fill="#F99EA0"/>
<rect x="0.187256" y="66.8457" width="9.31037" height="9.41368" fill="#F99EA0"/>
<rect x="37.427" y="85.6741" width="9.31037" height="9.41368" fill="#F99EA0"/>
<rect x="46.7388" y="85.6741" width="9.31037" height="9.41368" fill="#F99EA0"/>
<rect x="56.0483" y="85.6741" width="9.31037" height="9.41368" fill="#F99EA0"/>
<rect x="65.3606" y="85.6741" width="9.31037" height="9.41368" fill="#F99EA0"/>
<rect x="74.6704" y="85.6741" width="9.31037" height="9.41368" fill="#F99EA0"/>
<rect x="83.9822" y="85.6741" width="9.31037" height="9.41368" fill="#F99EA0"/>
<rect x="93.2903" y="85.6741" width="9.31037" height="9.41368" fill="#F99EA0"/>
<rect x="102.6" y="85.6741" width="9.31037" height="9.41368" fill="#F99EA0"/>
<rect x="111.912" y="85.6741" width="9.31037" height="9.41368" fill="#F99EA0"/>
<rect x="121.222" y="85.6741" width="9.31037" height="9.41368" fill="#F99EA0"/>
<rect x="130.534" y="85.6741" width="9.31037" height="9.41368" fill="#F99EA0"/>
<rect x="139.844" y="85.6741" width="9.31037" height="9.41368" fill="#F99EA0"/>
<rect x="149.156" y="85.6741" width="9.31037" height="9.41368" fill="#F99EA0"/>
<rect x="158.461" y="85.6741" width="9.31037" height="9.41368" fill="#F99EA0"/>
<rect x="167.773" y="85.6741" width="9.31037" height="9.41368" fill="#F99EA0"/>
<rect x="177.083" y="85.6741" width="9.31037" height="9.41368" fill="#F99EA0"/>
<rect x="186.395" y="85.6741" width="9.31037" height="9.41368" fill="#F99EA0"/>
<rect x="205.017" y="85.6741" width="9.31037" height="9.41368" fill="#F99EA0"/>
<rect x="195.705" y="85.6741" width="9.31037" height="9.41368" fill="#F99EA0"/>
<rect x="214.325" y="85.6741" width="9.31037" height="9.41368" fill="#F99EA0"/>
<rect x="223.635" y="76.26" width="9.31037" height="9.41368" fill="#F99EA0"/>
<rect x="232.947" y="66.8457" width="9.31037" height="9.41368" fill="#F99EA0"/>
<rect x="18.8091" y="1.57837" width="9.31037" height="9.41368" fill="#F99EA0"/>
</svg>
