<svg width="388" height="151" viewBox="0 0 388 151" fill="none" xmlns="http://www.w3.org/2000/svg">
<rect x="104.693" y="120.847" width="14.8846" height="14.9998" fill="#E30C10"/>
<rect x="119.578" y="120.847" width="14.8847" height="14.9998" fill="#E30C10"/>
<rect x="134.464" y="120.847" width="14.8847" height="14.9998" fill="#E30C10"/>
<rect x="149.344" y="120.847" width="14.8846" height="14.9998" fill="#E30C10"/>
<rect x="164.229" y="120.847" width="14.8846" height="14.9998" fill="#E30C10"/>
<rect x="179.115" y="120.847" width="14.8846" height="14.9998" fill="#E30C10"/>
<rect x="194" y="120.847" width="14.8846" height="14.9998" fill="#E30C10"/>
<rect x="208.886" y="120.847" width="14.8846" height="14.9998" fill="#E30C10"/>
<rect x="223.771" y="120.847" width="14.8846" height="14.9998" fill="#E30C10"/>
<rect x="238.657" y="120.847" width="14.8847" height="14.9998" fill="#E30C10"/>
<rect x="253.537" y="120.847" width="14.8846" height="14.9998" fill="#E30C10"/>
<rect x="268.422" y="120.847" width="14.8846" height="14.9998" fill="#E30C10"/>
<rect x="283.308" y="120.847" width="14.8846" height="14.9998" fill="#E30C10"/>
<rect x="298.193" y="120.847" width="14.8846" height="14.9998" fill="#E30C10"/>
<rect x="327.964" y="120.847" width="14.8846" height="14.9998" fill="#E30C10"/>
<rect x="313.079" y="120.847" width="14.8846" height="14.9998" fill="#E30C10"/>
<rect x="342.844" y="120.847" width="14.8846" height="14.9998" fill="#E30C10"/>
<rect x="357.73" y="105.846" width="14.8846" height="14.9998" fill="#E30C10"/>
<rect x="372.615" y="90.8459" width="14.8846" height="14.9998" fill="#E30C10"/>
<rect x="372.615" y="75.8452" width="14.8846" height="14.9998" fill="#E30C10"/>
<rect x="372.615" y="60.8447" width="14.8846" height="14.9998" fill="#E30C10"/>
<rect x="372.615" y="45.8491" width="14.8846" height="14.9998" fill="#E30C10"/>
<rect x="372.615" y="30.8486" width="14.8846" height="14.9998" fill="#E30C10"/>
<rect x="357.73" y="15.8479" width="14.8846" height="14.9998" fill="#E30C10"/>
<rect x="15.3855" y="30.8486" width="14.8846" height="14.9998" fill="#E30C10"/>
<path d="M15.3855 45.8491H30.2701V60.8489H15.3855V45.8491Z" fill="#E30C10"/>
<path d="M15.3855 60.8489H30.2701V75.8487H15.3855V60.8489Z" fill="#E30C10"/>
<path d="M15.3855 75.8487H30.2701V90.8485H15.3855V75.8487Z" fill="#E30C10"/>
<path d="M15.3855 90.8485H30.2701V105.848H15.3855V90.8485Z" fill="#E30C10"/>
<rect x="30.2708" y="15.8479" width="14.8846" height="14.9998" fill="#E30C10"/>
<path d="M45.1562 0.847412H60.0409V15.8472H45.1562V0.847412Z" fill="#E30C10"/>
<rect x="60.0369" y="0.847412" width="14.8846" height="14.9998" fill="#E30C10"/>
<rect x="60.0369" y="120.847" width="14.8846" height="14.9998" fill="#E30C10"/>
<rect x="74.9219" y="120.847" width="14.8846" height="14.9998" fill="#E30C10"/>
<rect x="45.1562" y="120.847" width="14.8846" height="14.9998" fill="#E30C10"/>
<rect x="30.2708" y="105.846" width="14.8846" height="14.9998" fill="#E30C10"/>
<rect x="89.8074" y="120.847" width="14.8846" height="14.9998" fill="#E30C10"/>
<rect x="104.693" y="0.847412" width="14.8846" height="14.9998" fill="#E30C10"/>
<rect x="119.578" y="0.847412" width="14.8847" height="14.9998" fill="#E30C10"/>
<rect x="134.464" y="0.847412" width="14.8847" height="14.9998" fill="#E30C10"/>
<rect x="149.344" y="0.847412" width="14.8846" height="14.9998" fill="#E30C10"/>
<rect x="164.229" y="0.847412" width="14.8846" height="14.9998" fill="#E30C10"/>
<rect x="179.115" y="0.847412" width="14.8846" height="14.9998" fill="#E30C10"/>
<rect x="194" y="0.847412" width="14.8846" height="14.9998" fill="#E30C10"/>
<rect x="208.886" y="0.847412" width="14.8846" height="14.9998" fill="#E30C10"/>
<rect x="223.771" y="0.847412" width="14.8846" height="14.9998" fill="#E30C10"/>
<rect x="238.657" y="0.847412" width="14.8847" height="14.9998" fill="#E30C10"/>
<rect x="253.537" y="0.847412" width="14.8846" height="14.9998" fill="#E30C10"/>
<rect x="268.422" y="0.847412" width="14.8846" height="14.9998" fill="#E30C10"/>
<rect x="283.308" y="0.847412" width="14.8846" height="14.9998" fill="#E30C10"/>
<rect x="298.193" y="0.847412" width="14.8846" height="14.9998" fill="#E30C10"/>
<rect x="313.079" y="0.847412" width="14.8846" height="14.9998" fill="#E30C10"/>
<rect x="327.964" y="0.847412" width="14.8846" height="14.9998" fill="#E30C10"/>
<rect x="342.844" y="0.847412" width="14.8846" height="14.9998" fill="#E30C10"/>
<rect x="89.8074" y="0.847412" width="14.8846" height="14.9998" fill="#E30C10"/>
<rect x="74.9219" y="0.847412" width="14.8846" height="14.9998" fill="#E30C10"/>
<rect x="208.886" y="30.8486" width="14.8846" height="14.9998" fill="#FFDBF7"/>
<path d="M268.422 45.8491H283.307V60.8489H268.422V45.8491Z" fill="#FFDBF7"/>
<rect x="74.9219" y="45.8491" width="14.8846" height="14.9998" fill="#DF2527"/>
<rect x="89.8074" y="45.8491" width="14.8846" height="14.9998" fill="#DF2527"/>
<rect x="56.0066" y="30.8435" width="286.838" height="77.6986" fill="#DF2527"/>
<rect x="194" y="45.8491" width="14.8846" height="14.9998" fill="#DF2527"/>
<rect x="194" y="60.8447" width="14.8846" height="14.9998" fill="#DF2527"/>
<rect x="194" y="90.8459" width="14.8846" height="14.9998" fill="#DF2527"/>
<rect x="45.1562" y="15.8479" width="14.8846" height="14.9998" fill="#DF2527"/>
<rect x="45.1562" y="105.846" width="14.8846" height="14.9998" fill="#DF2527"/>
<rect x="45.1562" y="90.8459" width="14.8846" height="14.9998" fill="#DF2527"/>
<rect x="45.1562" y="75.8452" width="14.8846" height="14.9998" fill="#DF2527"/>
<rect x="60.0369" y="75.8452" width="14.8846" height="14.9998" fill="#DF2527"/>
<rect x="45.1562" y="60.8447" width="14.8846" height="14.9998" fill="#DF2527"/>
<rect x="45.1562" y="45.8491" width="14.8846" height="14.9998" fill="#DF2527"/>
<rect x="45.1562" y="30.8486" width="14.8846" height="14.9998" fill="#DF2527"/>
<rect x="30.2708" y="90.8459" width="14.8846" height="14.9998" fill="#DF2527"/>
<rect x="30.2708" y="75.8452" width="14.8846" height="14.9998" fill="#DF2527"/>
<rect x="30.2708" y="60.8447" width="14.8846" height="14.9998" fill="#DF2527"/>
<rect x="30.2708" y="45.8491" width="14.8846" height="14.9998" fill="#DF2527"/>
<rect x="30.2708" y="30.8486" width="14.8846" height="14.9998" fill="#DF2527"/>
<rect x="342.844" y="90.8459" width="14.8846" height="14.9998" fill="#DF2527"/>
<rect x="342.844" y="75.8452" width="14.8846" height="14.9998" fill="#DF2527"/>
<rect x="342.844" y="60.8447" width="14.8846" height="14.9998" fill="#DF2527"/>
<rect x="342.844" y="45.8491" width="14.8846" height="14.9998" fill="#DF2527"/>
<rect x="327.964" y="90.8459" width="14.8846" height="14.9998" fill="#DF2527"/>
<rect x="313.079" y="105.846" width="14.8846" height="14.9998" fill="#DF2527"/>
<rect x="327.964" y="75.8452" width="14.8846" height="14.9998" fill="#DF2527"/>
<rect x="327.964" y="60.8447" width="14.8846" height="14.9998" fill="#DF2527"/>
<rect x="327.964" y="45.8491" width="14.8846" height="14.9998" fill="#DF2527"/>
<rect x="298.193" y="90.8459" width="14.8846" height="14.9998" fill="#DF2527"/>
<rect x="298.193" y="75.8452" width="14.8846" height="14.9998" fill="#DF2527"/>
<rect x="298.193" y="60.8447" width="14.8846" height="14.9998" fill="#DF2527"/>
<rect x="298.193" y="45.8491" width="14.8846" height="14.9998" fill="#DF2527"/>
<rect x="149.344" y="90.8459" width="14.8846" height="14.9998" fill="#DF2527"/>
<rect x="149.344" y="75.8452" width="14.8846" height="14.9998" fill="#DF2527"/>
<rect x="149.344" y="60.8447" width="14.8846" height="14.9998" fill="#DF2527"/>
<rect x="149.344" y="45.8491" width="14.8846" height="14.9998" fill="#DF2527"/>
<rect x="119.578" y="90.8459" width="14.8847" height="14.9998" fill="#DF2527"/>
<rect x="119.578" y="75.8452" width="14.8847" height="14.9998" fill="#DF2527"/>
<rect x="119.578" y="60.8447" width="14.8847" height="14.9998" fill="#DF2527"/>
<rect x="119.578" y="45.8491" width="14.8847" height="14.9998" fill="#DF2527"/>
<rect x="342.844" y="30.8486" width="14.8846" height="14.9998" fill="#DF2527"/>
<rect x="104.693" y="90.8459" width="14.8846" height="14.9998" fill="#DF2527"/>
<rect x="104.693" y="75.8452" width="14.8846" height="14.9998" fill="#DF2527"/>
<rect x="104.693" y="60.8447" width="14.8846" height="14.9998" fill="#DF2527"/>
<rect x="104.693" y="45.8491" width="14.8846" height="14.9998" fill="#DF2527"/>
<rect x="89.8074" y="30.8435" width="14.8846" height="14.9998" fill="#DF2527"/>
<rect x="74.9219" y="30.8435" width="14.8846" height="14.9998" fill="#DF2527"/>
<rect x="60.0369" y="30.8435" width="14.8846" height="14.9998" fill="#DF2527"/>
<rect x="60.0369" y="45.8442" width="14.8846" height="14.9998" fill="#DF2527"/>
<rect x="104.693" y="30.8486" width="14.8846" height="14.9998" fill="#DF2527"/>
<rect x="164.229" y="90.8459" width="14.8846" height="14.9998" fill="#DF2527"/>
<rect x="164.229" y="75.8452" width="14.8846" height="14.9998" fill="#DF2527"/>
<rect x="164.229" y="60.8447" width="14.8846" height="14.9998" fill="#DF2527"/>
<rect x="164.229" y="45.8491" width="14.8846" height="14.9998" fill="#DF2527"/>
<rect x="164.229" y="30.8486" width="14.8846" height="14.9998" fill="#DF2527"/>
<rect x="223.771" y="90.8459" width="14.8846" height="14.9998" fill="#DF2527"/>
<rect x="223.771" y="75.8452" width="14.8846" height="14.9998" fill="#DF2527"/>
<rect x="223.771" y="60.8447" width="14.8846" height="14.9998" fill="#DF2527"/>
<rect x="223.771" y="45.8491" width="14.8846" height="14.9998" fill="#DF2527"/>
<rect x="223.771" y="30.8486" width="14.8846" height="14.9998" fill="#DF2527"/>
<rect x="253.537" y="45.8491" width="14.8846" height="14.9998" fill="#DF2527"/>
<rect x="253.537" y="60.8447" width="14.8846" height="14.9998" fill="#DF2527"/>
<rect x="253.537" y="90.8459" width="14.8846" height="14.9998" fill="#DF2527"/>
<rect x="283.308" y="90.8459" width="14.8846" height="14.9998" fill="#DF2527"/>
<rect x="268.422" y="75.8452" width="14.8846" height="14.9998" fill="#DF2527"/>
<rect x="283.308" y="60.8447" width="14.8846" height="14.9998" fill="#DF2527"/>
<rect x="283.308" y="75.8452" width="14.8846" height="14.9998" fill="#DF2527"/>
<rect x="283.308" y="45.8491" width="14.8846" height="14.9998" fill="#DF2527"/>
<rect x="283.308" y="30.8486" width="14.8846" height="14.9998" fill="#DF2527"/>
<rect x="357.73" y="90.8459" width="14.8846" height="14.9998" fill="#DF2527"/>
<rect x="357.73" y="75.8452" width="14.8846" height="14.9998" fill="#DF2527"/>
<rect x="357.73" y="60.8447" width="14.8846" height="14.9998" fill="#DF2527"/>
<rect x="357.73" y="45.8491" width="14.8846" height="14.9998" fill="#DF2527"/>
<rect x="357.73" y="30.8486" width="14.8846" height="14.9998" fill="#DF2527"/>
<rect x="74.9219" y="75.8452" width="14.8846" height="14.9998" fill="#DF2527"/>
<rect x="60.0369" y="15.8479" width="14.8846" height="14.9998" fill="#DF2527"/>
<rect x="74.9219" y="15.8479" width="14.8846" height="14.9998" fill="#DF2527"/>
<rect x="89.8074" y="15.8479" width="14.8846" height="14.9998" fill="#DF2527"/>
<rect x="104.693" y="15.8479" width="14.8846" height="14.9998" fill="#DF2527"/>
<rect x="119.578" y="15.8479" width="14.8847" height="14.9998" fill="#DF2527"/>
<rect x="134.464" y="15.8479" width="14.8847" height="14.9998" fill="#DF2527"/>
<rect x="149.344" y="15.8479" width="14.8846" height="14.9998" fill="#DF2527"/>
<rect x="164.229" y="15.8479" width="14.8846" height="14.9998" fill="#DF2527"/>
<rect x="179.115" y="15.8479" width="14.8846" height="14.9998" fill="#DF2527"/>
<rect x="194" y="15.8479" width="14.8846" height="14.9998" fill="#DF2527"/>
<rect x="179.115" y="30.8486" width="14.8846" height="14.9998" fill="#DF2527"/>
<rect x="208.886" y="15.8479" width="14.8846" height="14.9998" fill="#DF2527"/>
<rect x="208.886" y="15.8479" width="14.8846" height="14.9998" fill="#DF2527"/>
<rect x="223.771" y="15.8479" width="14.8846" height="14.9998" fill="#DF2527"/>
<rect x="238.657" y="15.8479" width="14.8847" height="14.9998" fill="#DF2527"/>
<rect x="253.537" y="15.8479" width="14.8846" height="14.9998" fill="#DF2527"/>
<rect x="268.422" y="15.8479" width="14.8846" height="14.9998" fill="#DF2527"/>
<rect x="283.308" y="15.8479" width="14.8846" height="14.9998" fill="#DF2527"/>
<rect x="298.193" y="15.8479" width="14.8846" height="14.9998" fill="#DF2527"/>
<rect x="313.079" y="15.8479" width="14.8846" height="14.9998" fill="#DF2527"/>
<rect x="327.964" y="15.8479" width="14.8846" height="14.9998" fill="#DF2527"/>
<rect x="342.844" y="15.8479" width="14.8846" height="14.9998" fill="#DF2527"/>
<rect x="60.0369" y="105.846" width="14.8846" height="14.9998" fill="#DF2527"/>
<rect x="74.9219" y="105.846" width="14.8846" height="14.9998" fill="#DF2527"/>
<rect x="89.8074" y="105.846" width="14.8846" height="14.9998" fill="#DF2527"/>
<rect x="104.693" y="105.846" width="14.8846" height="14.9998" fill="#DF2527"/>
<rect x="119.578" y="105.846" width="14.8847" height="14.9998" fill="#DF2527"/>
<rect x="134.464" y="105.846" width="14.8847" height="14.9998" fill="#DF2527"/>
<rect x="149.344" y="105.846" width="14.8846" height="14.9998" fill="#DF2527"/>
<rect x="164.229" y="105.846" width="14.8846" height="14.9998" fill="#DF2527"/>
<rect x="179.115" y="105.846" width="14.8846" height="14.9998" fill="#DF2527"/>
<rect x="194" y="105.846" width="14.8846" height="14.9998" fill="#DF2527"/>
<rect x="208.886" y="105.846" width="14.8846" height="14.9998" fill="#DF2527"/>
<rect x="208.886" y="105.846" width="14.8846" height="14.9998" fill="#DF2527"/>
<rect x="223.771" y="105.846" width="14.8846" height="14.9998" fill="#DF2527"/>
<rect x="238.657" y="105.846" width="14.8847" height="14.9998" fill="#DF2527"/>
<rect x="253.537" y="105.846" width="14.8846" height="14.9998" fill="#DF2527"/>
<rect x="268.422" y="105.846" width="14.8846" height="14.9998" fill="#DF2527"/>
<rect x="283.308" y="105.846" width="14.8846" height="14.9998" fill="#DF2527"/>
<rect x="298.193" y="105.846" width="14.8846" height="14.9998" fill="#DF2527"/>
<rect x="327.964" y="105.846" width="14.8846" height="14.9998" fill="#DF2527"/>
<rect x="342.844" y="105.846" width="14.8846" height="14.9998" fill="#DF2527"/>
<rect x="15.3855" y="16.8494" width="14.8846" height="14.9998" fill="#F99EA0"/>
<rect x="0.5" y="31.8447" width="14.8846" height="14.9998" fill="#F99EA0"/>
<rect x="0.5" y="46.8457" width="14.8846" height="14.9998" fill="#F99EA0"/>
<rect x="0.5" y="61.8462" width="14.8846" height="14.9998" fill="#F99EA0"/>
<rect x="0.5" y="76.8464" width="14.8846" height="14.9998" fill="#F99EA0"/>
<rect x="0.5" y="90.8459" width="14.8846" height="14.9998" fill="#F99EA0"/>
<rect x="15.3855" y="105.846" width="14.8846" height="14.9998" fill="#F99EA0"/>
<rect x="30.2708" y="120.847" width="14.8846" height="14.9998" fill="#F99EA0"/>
<rect x="45.1562" y="135.848" width="14.8846" height="14.9998" fill="#F99EA0"/>
<rect x="30.2708" y="135.848" width="14.8846" height="14.9998" fill="#F99EA0"/>
<rect x="15.3855" y="120.847" width="14.8846" height="14.9998" fill="#F99EA0"/>
<rect x="0.5" y="105.846" width="14.8846" height="14.9998" fill="#F99EA0"/>
<rect x="60.0369" y="135.848" width="14.8846" height="14.9998" fill="#F99EA0"/>
<rect x="74.9219" y="135.848" width="14.8846" height="14.9998" fill="#F99EA0"/>
<rect x="89.8074" y="135.848" width="14.8846" height="14.9998" fill="#F99EA0"/>
<rect x="104.693" y="135.848" width="14.8846" height="14.9998" fill="#F99EA0"/>
<rect x="119.578" y="135.848" width="14.8847" height="14.9998" fill="#F99EA0"/>
<rect x="134.464" y="135.848" width="14.8847" height="14.9998" fill="#F99EA0"/>
<rect x="149.344" y="135.848" width="14.8846" height="14.9998" fill="#F99EA0"/>
<rect x="164.229" y="135.848" width="14.8846" height="14.9998" fill="#F99EA0"/>
<rect x="179.115" y="135.848" width="14.8846" height="14.9998" fill="#F99EA0"/>
<rect x="194" y="135.848" width="14.8846" height="14.9998" fill="#F99EA0"/>
<rect x="208.886" y="135.848" width="14.8846" height="14.9998" fill="#F99EA0"/>
<rect x="223.771" y="135.848" width="14.8846" height="14.9998" fill="#F99EA0"/>
<rect x="238.657" y="135.848" width="14.8847" height="14.9998" fill="#F99EA0"/>
<rect x="253.537" y="135.848" width="14.8846" height="14.9998" fill="#F99EA0"/>
<rect x="268.422" y="135.848" width="14.8846" height="14.9998" fill="#F99EA0"/>
<rect x="283.308" y="135.848" width="14.8846" height="14.9998" fill="#F99EA0"/>
<rect x="298.193" y="135.848" width="14.8846" height="14.9998" fill="#F99EA0"/>
<rect x="327.964" y="135.848" width="14.8846" height="14.9998" fill="#F99EA0"/>
<rect x="313.079" y="135.848" width="14.8846" height="14.9998" fill="#F99EA0"/>
<rect x="342.844" y="135.848" width="14.8846" height="14.9998" fill="#F99EA0"/>
<rect x="357.73" y="120.847" width="14.8846" height="14.9998" fill="#F99EA0"/>
<rect x="372.615" y="105.846" width="14.8846" height="14.9998" fill="#F99EA0"/>
<rect x="30.2708" y="1.84888" width="14.8846" height="14.9998" fill="#F99EA0"/>
<path d="M136.844 93.783H118.344V89.158H122.969V56.783H118.344V52.158H146.094V56.783H150.719V70.658H146.094V75.283H132.219V89.158H136.844V93.783ZM132.219 70.658H141.469V66.033V61.408V56.783H132.219V61.408V70.658ZM173.844 56.783H169.219V89.158H178.469V84.533H183.094V79.908H187.719V93.783H155.344V89.158H159.969V56.783H155.344V52.158H173.844V56.783ZM192.344 66.033H196.969V61.408H201.594V56.783H206.219V52.158H210.844V56.783H215.469V61.408H220.094V66.033H224.719V93.783H215.469V79.908H201.594V93.783H192.344V66.033ZM201.594 75.283H215.469V70.658V66.033H210.844V61.408H206.219V66.033H201.594V75.283ZM257.094 93.783H238.594V89.158H243.219V70.658H238.594V66.033H233.969V61.408H229.344V52.158H238.594V61.408H243.219V66.033H252.469V61.408H257.094V52.158H266.344V61.408H261.719V66.033H257.094V70.658H252.469V89.158H257.094V93.783Z" fill="white"/>
</svg>
